General
Format : AVI
Format/Info : Audio Video Interleave
File size : 1.32 GiB
Duration : 1h 34mn
Overall bit rate : 2 001 Kbps

Video
ID : 0
Format : MPEG-4 Visual
Format profile : Advanced Simple@L5
Format settings, BVOP : 2
Format settings, QPel : Yes
Format settings, GMC : No warppoints
Format settings, Matrix : Default (MPEG)
Codec ID : XVID
Codec ID/Hint : XviD
Duration : 1h 34mn
Bit rate : 1 545 Kbps
Width : 720 pixels
Height : 400 pixels
Display aspect ratio : 16:9
Frame rate : 23.976 fps
Color space : YUV
Chroma subsampling : 4:2:0
Bit depth : 8 bits
Scan type : Progressive
Compression mode : Lossy
Bits/(Pixel*Frame) : 0.224
Stream size : 1.02 GiB (77%)
Writing library : XviD 63

Audio
ID : 1
Format : AC-3
Format/Info : Audio Coding 3
Mode extension : CM (complete main)
Codec ID : 2000
Duration : 1h 34mn
Bit rate mode : Constant
Bit rate : 448 Kbps
Channel(s) : 6 channels
Channel positions : Front: L C R, Side: L R, LFE
Sampling rate : 48.0 KHz
Bit depth : 16 bits
Compression mode : Lossy
Stream size : 303 MiB (22%)
Alignment : Aligned on interleaves
Interleave, duration : 64 ms (1.53 video frames)
Interleave, preload duration : 192 ms
Title : VTS_01_1 T80 3_2ch 448Kbps DELAY 0ms english

Actors: Renee O'Connor, Larry Joe Campbell
Directors: Rich Brauer
Language: English
Studio: Osiris Entertainment
DVD Release Date: April 5, 2011
Run Time: 94 minutes

Sample Included: Yes
Encoder: Freebee269